ffmpeg started on 2016-11-27 at 22:18:35
Report written to "Output/NVENCh264/results/ffmpeg/old_town_cross_2160p50llhp3500k.log"
Command line:
Tools/ffmpeg/ffmpeg -benchmark -y -i Input/y4m/old_town_cross_2160p50.y4m -c:v h264_nvenc -preset llhp -b:v 3500k -an Output/NVENCh264/encoded/old_town_cross_2160p50llhp3500k.mkv
ffmpeg version N-82227-gdb23fde Copyright (c) 2000-2016 the FFmpeg developers
  built with gcc 5.4.0 (Ubuntu 5.4.0-6ubuntu1~16.04.2) 20160609
  configuration: --prefix=/home/jaroslav/ffmpeg_build --pkg-config-flags=--static --extra-cflags=-I/home/jaroslav/ffmpeg_build/include --extra-ldflags=-L/home/jaroslav/ffmpeg_build/lib --bindir=/home/jaroslav/bin --enable-gpl --enable-libass --enable-libfdk-aac --enable-libfreetype --enable-libmp3lame --enable-libopus --enable-libtheora --enable-libvorbis --enable-libvpx --enable-libx264 --enable-libx265 --enable-nvenc --enable-libmfx --enable-libxvid --enable-libgsm --enable-libopencore-amrnb --enable-version3 --enable-nonfree
  libavutil      55. 35.100 / 55. 35.100
  libavcodec     57. 66.101 / 57. 66.101
  libavformat    57. 57.100 / 57. 57.100
  libavdevice    57.  2.100 / 57.  2.100
  libavfilter     6. 66.100 /  6. 66.100
  libswscale      4.  3.100 /  4.  3.100
  libswresample   2.  4.100 /  2.  4.100
  libpostproc    54.  2.100 / 54.  2.100
Input #0, yuv4mpegpipe, from 'Input/y4m/old_town_cross_2160p50.y4m':
  Duration: 00:00:10.00, start: 0.000000, bitrate: 4976642 kb/s
    Stream #0:0: Video: rawvideo (I420 / 0x30323449), yuv420p(progressive), 3840x2160, SAR 1:1 DAR 16:9, 50 fps, 50 tbr, 50 tbn, 50 tbc
[h264_nvenc @ 0x2d0c120] The variable bitrate rate-control requires the 'qmin' and/or 'qmax' option set.
Output #0, matroska, to 'Output/NVENCh264/encoded/old_town_cross_2160p50llhp3500k.mkv':
  Metadata:
    encoder         : Lavf57.57.100
    Stream #0:0: Video: h264 (h264_nvenc) (Main) (H264 / 0x34363248), yuv420p, 3840x2160 [SAR 1:1 DAR 16:9], q=-1--1, 3500 kb/s, 50 fps, 1k tbn, 50 tbc
    Metadata:
      encoder         : Lavc57.66.101 h264_nvenc
    Side data:
      cpb: bitrate max/min/avg: 0/0/3500000 buffer size: 7000000 vbv_delay: -1
Stream mapping:
  Stream #0:0 -> #0:0 (rawvideo (native) -> h264 (h264_nvenc))
Press [q] to stop, [?] for help
frame=   19 fps=0.0 q=0.0 size=       0kB time=00:00:00.00 bitrate=N/A speed=   0x    frame=   28 fps= 26 q=0.0 size=       0kB time=00:00:00.00 bitrate=N/A speed=   0x    frame=   36 fps= 22 q=41.0 size=       1kB time=00:00:00.10 bitrate=  59.2kbits/s speed=0.0611x    frame=   54 fps= 25 q=41.0 size=       1kB time=00:00:00.46 bitrate=  13.0kbits/s speed=0.213x    frame=   69 fps= 24 q=39.0 size=       1kB time=00:00:00.76 bitrate=   7.9kbits/s speed=0.269x    frame=   80 fps= 23 q=39.0 size=       1kB time=00:00:00.98 bitrate=   6.1kbits/s speed=0.28x    frame=   98 fps= 24 q=39.0 size=       1kB time=00:00:01.34 bitrate=   4.5kbits/s speed=0.334x    frame=  116 fps= 26 q=37.0 size=       1kB time=00:00:01.70 bitrate=   3.5kbits/s speed=0.375x    frame=  134 fps= 27 q=37.0 size=       1kB time=00:00:02.06 bitrate=   2.9kbits/s speed=0.409x    frame=  152 fps= 27 q=37.0 size=       1kB time=00:00:02.42 bitrate=   2.5kbits/s speed=0.436x    frame=  170 fps= 28 q=37.0 size=       1kB time=00:00:02.78 bitrate=   2.1kbits/s speed=0.458x    frame=  188 fps= 29 q=37.0 size=       1kB time=00:00:03.14 bitrate=   1.9kbits/s speed=0.477x    frame=  206 fps= 29 q=36.0 size=       1kB time=00:00:03.50 bitrate=   1.7kbits/s speed=0.494x    frame=  224 fps= 29 q=37.0 size=       1kB time=00:00:03.86 bitrate=   1.5kbits/s speed=0.508x    frame=  242 fps= 30 q=37.0 size=       1kB time=00:00:04.22 bitrate=   1.4kbits/s speed=0.52x    frame=  260 fps= 30 q=36.0 size=       1kB time=00:00:04.58 bitrate=   1.3kbits/s speed=0.53x    frame=  278 fps= 30 q=37.0 size=       1kB time=00:00:04.94 bitrate=   1.2kbits/s speed=0.54x    frame=  296 fps= 31 q=38.0 size=    2057kB time=00:00:05.30 bitrate=3179.4kbits/s speed=0.548x    frame=  313 fps= 30 q=41.0 size=    2057kB time=00:00:05.64 bitrate=2987.7kbits/s speed=0.536x    frame=  331 fps= 30 q=42.0 size=    2057kB time=00:00:06.00 bitrate=2808.5kbits/s speed=0.544x    frame=  349 fps= 30 q=39.0 size=    2057kB time=00:00:06.36 bitrate=2649.5kbits/s speed=0.551x    frame=  367 fps= 30 q=38.0 size=    2057kB time=00:00:06.72 bitrate=2507.6kbits/s speed=0.557x    frame=  385 fps= 31 q=37.0 size=    2057kB time=00:00:07.08 bitrate=2380.1kbits/s speed=0.563x    frame=  403 fps= 31 q=37.0 size=    2057kB time=00:00:07.44 bitrate=2265.0kbits/s speed=0.569x    frame=  421 fps= 31 q=37.0 size=    2057kB time=00:00:07.80 bitrate=2160.5kbits/s speed=0.574x    frame=  439 fps= 31 q=37.0 size=    2057kB time=00:00:08.16 bitrate=2065.2kbits/s speed=0.578x    frame=  457 fps= 31 q=37.0 size=    2057kB time=00:00:08.52 bitrate=1977.9kbits/s speed=0.583x    frame=  475 fps= 31 q=37.0 size=    2057kB time=00:00:08.88 bitrate=1897.7kbits/s speed=0.587x    frame=  493 fps= 32 q=36.0 size=    2057kB time=00:00:09.24 bitrate=1823.8kbits/s speed=0.591x    frame=  500 fps= 31 q=38.0 Lsize=    4197kB time=00:00:09.98 bitrate=3444.7kbits/s speed=0.628x    
video:4193kB audio:0kB subtitle:0kB other streams:0kB global headers:0kB muxing overhead: 0.100969%
bench: utime=1.160s
bench: maxrss=1408812kB
